<svg xmlns="http://www.w3.org/2000/svg" xmlns:xlink="http://www.w3.org/1999/xlink" zoomAndPan="magnify" preserveAspectRatio="xMidYMid meet" version="1.0" viewBox="37.5 157.77 298.93 59.25"><defs><g/><clipPath id="cfd60efc38"><path d="M 37.5 157.773438 L 93.75 157.773438 L 93.75 217.023438 L 37.5 217.023438 Z M 37.5 157.773438 " clip-rule="nonzero"/></clipPath></defs><g clip-path="url(#cfd60efc38)"><path fill="#7ec802" d="M 53.675781 171.03125 C 52.480469 169.253906 51.78125 167.109375 52.101562 164.953125 C 52.46875 164.3125 52.8125 163.660156 53.132812 162.988281 C 52.386719 164.8125 52.800781 166.8125 53.828125 168.4375 C 53.914062 165.984375 54.054688 163.519531 54.894531 161.171875 C 55.035156 161.089844 55.332031 160.9375 55.472656 160.851562 C 55.546875 162.949219 56.136719 165.082031 55.605469 167.167969 C 55.308594 168.613281 54.410156 169.800781 53.675781 171.03125 Z M 77.703125 177.3125 C 77.691406 177.824219 77.679688 178.320312 77.667969 178.828125 C 78.792969 177.550781 79.632812 176.035156 79.988281 174.375 C 78.886719 175.050781 78.152344 176.117188 77.703125 177.3125 Z M 55.261719 184.824219 C 53.652344 184.683594 52.019531 184.71875 50.398438 184.589844 C 48.859375 184.507812 47.523438 183.628906 46.222656 182.894531 C 48.777344 181.980469 51.488281 183.058594 53.9375 183.808594 C 53.960938 183.734375 53.996094 183.582031 54.007812 183.511719 C 53.6875 183.378906 53.367188 183.25 53.050781 183.121094 C 51.832031 181.945312 50.257812 180.976562 48.519531 180.988281 C 46.671875 180.902344 45.109375 182.054688 43.621094 182.976562 C 44.898438 183.902344 46.222656 184.824219 47.75 185.277344 C 50.257812 185.773438 52.777344 185.003906 55.261719 184.824219 Z M 82.933594 200.609375 C 82.730469 198.570312 82.140625 196.296875 82.09375 196.09375 C 82.09375 196.09375 82.09375 196.09375 82.09375 196.082031 C 80.933594 196 79.773438 195.917969 78.613281 195.871094 C 80.402344 198.347656 81.347656 201.429688 80.933594 204.484375 C 80.402344 206.191406 79.714844 207.839844 78.652344 209.285156 L 75.941406 210.882812 L 77.007812 212.378906 C 81.703125 208.417969 82.707031 204.164062 82.910156 202.910156 C 83.027344 202.292969 83.015625 201.476562 82.933594 200.609375 Z M 82.09375 196.09375 C 82.140625 196.296875 82.730469 198.570312 82.933594 200.609375 C 82.851562 199.082031 82.519531 197.566406 82.09375 196.09375 Z M 87.855469 197.660156 C 86.53125 197.316406 85.214844 196.902344 83.890625 196.582031 C 84.292969 199.199219 84.269531 201.902344 83.535156 204.460938 C 82.660156 206.761719 81.289062 208.808594 79.667969 210.648438 C 82.058594 209.175781 84.292969 207.328125 85.796875 204.933594 C 87.074219 202.742188 88.140625 200.265625 87.855469 197.660156 Z M 65.046875 196.828125 C 64.417969 197.089844 63.792969 197.339844 63.164062 197.589844 C 64.523438 199.011719 65.753906 200.632812 66.121094 202.613281 C 65.058594 200.753906 63.625 199.140625 61.910156 197.871094 C 61.320312 198.15625 60.726562 198.453125 60.136719 198.75 C 62.726562 200.195312 64.925781 202.304688 66.324219 204.933594 C 66.652344 204.414062 66.972656 203.867188 67.199219 203.277344 C 67.234375 201.046875 67.246094 198.738281 66.214844 196.699219 C 65.921875 196.722656 65.339844 196.792969 65.046875 196.828125 Z M 58.597656 199.390625 C 57.664062 199.839844 56.777344 200.386719 55.984375 201.046875 C 59.046875 202.625 61.921875 204.617188 64.335938 207.082031 C 64.84375 206.617188 65.328125 206.121094 65.789062 205.609375 C 64.085938 202.851562 61.496094 200.777344 58.597656 199.390625 Z M 44.414062 199.992188 C 44.496094 200.742188 44.578125 201.488281 44.671875 202.246094 C 51.050781 202.292969 57.332031 204.554688 62.40625 208.394531 C 62.785156 208.171875 63.164062 207.933594 63.542969 207.695312 C 59.011719 203.953125 53.488281 201.558594 47.785156 200.242188 C 46.648438 200.113281 45.523438 200.042969 44.414062 199.992188 Z M 60.644531 207.730469 C 60.21875 207.53125 59.792969 207.316406 59.367188 207.09375 C 55.046875 204.769531 50.136719 203.265625 45.207031 203.5 C 45.511719 203.976562 45.820312 204.4375 46.128906 204.910156 C 46.128906 204.910156 46.140625 204.910156 46.152344 204.910156 C 46.601562 204.960938 53.226562 205.777344 56.5625 208.136719 C 56.90625 208.300781 57.214844 208.527344 57.425781 208.859375 C 57.226562 208.929688 57.023438 208.953125 56.847656 208.941406 C 56.65625 208.929688 56.46875 208.871094 56.3125 208.785156 C 51.285156 207.316406 46.753906 205.707031 46.613281 205.660156 C 46.800781 206.050781 47.003906 206.453125 47.191406 206.84375 C 47.277344 207.019531 47.429688 207.363281 47.511719 207.542969 C 48.660156 208.738281 49.972656 209.769531 51.367188 210.660156 C 52.292969 211.3125 53.476562 211.121094 54.527344 211.003906 C 57 210.648438 59.484375 210.042969 61.671875 208.808594 C 61.484375 208.324219 61.011719 208.0625 60.644531 207.730469 Z M 61.519531 179.71875 C 61.507812 180.546875 61.828125 181.367188 61.980469 182.171875 C 63.011719 181.53125 64.074219 180.867188 64.761719 179.824219 C 65.589844 178.367188 65.898438 176.695312 66.132812 175.0625 C 64.230469 176.199219 63.648438 178.449219 62.335938 180.097656 C 62.335938 179.96875 62.324219 179.835938 62.3125 179.707031 L 63.257812 177.015625 C 63.304688 176.921875 63.351562 176.816406 63.367188 176.707031 C 63.152344 176.09375 62.714844 176.542969 62.382812 176.769531 C 61.863281 177.441406 61.636719 178.582031 61.554688 179.222656 C 61.554688 179.222656 61.554688 179.234375 61.554688 179.234375 C 61.542969 179.398438 61.53125 179.550781 61.519531 179.71875 Z M 66.785156 157.773438 C 65.519531 158.507812 64.464844 159.550781 63.828125 160.863281 C 65.398438 160.523438 66.144531 159.113281 66.785156 157.773438 Z M 59.804688 162.347656 C 60.003906 161.234375 60.335938 160.140625 60.808594 159.125 C 60.160156 159.738281 59.414062 160.285156 58.964844 161.078125 C 58.46875 162.203125 58.503906 163.460938 58.492188 164.667969 C 59.554688 164.066406 60.726562 163.484375 61.367188 162.394531 C 62.050781 161.207031 62.488281 159.894531 63.058594 158.648438 C 62.867188 158.683594 62.476562 158.742188 62.289062 158.78125 C 61.320312 159.847656 60.574219 161.113281 59.804688 162.347656 Z M 63.828125 189.671875 C 64.0625 189.921875 64.300781 190.171875 64.523438 190.417969 C 64.3125 190.171875 64.074219 189.921875 63.828125 189.671875 Z M 50.578125 168.414062 C 51.0625 166.824219 50.386719 165.355469 49.453125 164.101562 C 49.261719 165.640625 49.902344 167.074219 50.578125 168.414062 Z M 58.929688 173.910156 C 60.242188 173.875 61.589844 173.898438 62.84375 173.472656 C 66.300781 172.476562 68.417969 169.351562 70.925781 167.015625 C 70.097656 167.003906 69.257812 167.050781 68.441406 167.144531 C 65.53125 168.035156 63.199219 170.023438 61 172.050781 C 61.082031 171.886719 61.234375 171.542969 61.308594 171.375 C 61.957031 170.074219 62.84375 168.898438 63.816406 167.808594 C 64.324219 167.574219 64.84375 167.347656 65.375 167.132812 C 65.105469 167.121094 64.832031 167.121094 64.558594 167.109375 C 61.625 168.222656 59.992188 171.128906 58.929688 173.910156 Z M 73.21875 167.523438 C 72.441406 168.308594 71.695312 169.148438 71.316406 170.214844 C 71.28125 170.984375 71.246094 171.753906 71.195312 172.527344 C 72.570312 172.3125 73.929688 171.730469 74.816406 170.617188 C 75.691406 169.503906 76.226562 168.175781 76.996094 166.992188 C 76.722656 166.992188 76.167969 166.992188 75.894531 166.992188 C 74.414062 167.867188 73.328125 169.195312 72.238281 170.5 C 72.144531 169.386719 72.628906 168.414062 73.21875 167.523438 Z M 67.847656 176.425781 C 69.164062 175.214844 69.257812 173.414062 69.316406 171.753906 C 69.175781 171.828125 68.902344 171.957031 68.773438 172.027344 C 68.132812 173.414062 67.789062 174.90625 67.847656 176.425781 Z M 67.46875 181.828125 C 67.671875 181.234375 67.859375 180.632812 68.0625 180.050781 C 68.75 178.78125 69.566406 177.574219 70.523438 176.496094 C 71.160156 176.035156 72.027344 175.785156 72.488281 175.121094 C 71.125 176.007812 69.527344 176.542969 68.417969 177.773438 C 66.867188 179.410156 65.753906 181.4375 65.070312 183.570312 C 66.546875 183.34375 68.050781 183.296875 69.515625 183 C 71.386719 182.515625 73.242188 181.660156 74.496094 180.121094 C 76.191406 177.953125 77.019531 175.191406 77.289062 172.488281 C 75.941406 173.4375 75.089844 174.871094 74.082031 176.152344 C 72.296875 178.472656 70.050781 180.429688 67.46875 181.828125 Z M 59.332031 180.0625 C 59.589844 179.160156 59.402344 178.238281 59.09375 177.382812 C 58.773438 176.945312 58.457031 176.507812 58.136719 176.082031 C 58.242188 177.417969 58.335938 179.042969 59.332031 180.0625 Z M 45.167969 178.070312 C 46.210938 179.304688 47.84375 179.71875 49.382812 179.824219 C 48.117188 178.628906 46.566406 177.726562 44.828125 177.445312 C 44.910156 177.609375 45.085938 177.917969 45.167969 178.070312 Z M 74.804688 182.136719 C 76.605469 182.3125 78.425781 181.898438 79.832031 180.738281 C 79.148438 180.667969 78.460938 180.621094 77.773438 180.59375 C 76.757812 181.058594 75.777344 181.578125 74.804688 182.136719 Z M 73.707031 188.40625 C 76.128906 188.050781 77.953125 186 78.96875 183.902344 C 78.804688 183.972656 78.484375 184.125 78.320312 184.199219 C 75.941406 184.800781 73.765625 186.449219 71.171875 185.890625 C 72.132812 185.015625 73.269531 184.398438 74.472656 183.925781 C 72.390625 184.199219 70.640625 185.40625 69.199219 186.863281 C 70.5 187.789062 72.097656 188.394531 73.707031 188.40625 Z M 49.738281 188.15625 C 49.308594 187.917969 48.882812 187.695312 48.46875 187.46875 C 46.753906 187.078125 45.132812 187.90625 43.535156 188.40625 C 45.523438 189.246094 47.761719 188.832031 49.738281 188.15625 Z M 56.847656 188.226562 C 58.410156 188.855469 59.863281 189.742188 61.234375 190.738281 C 59.613281 190.644531 57.996094 190.453125 56.410156 190.097656 C 53.34375 189.886719 50.164062 189.707031 47.289062 190.988281 C 50.019531 191.9375 52.824219 192.625 55.628906 193.308594 C 56.632812 193.371094 57.640625 193.371094 58.644531 193.308594 C 60.429688 192.765625 62.242188 192.242188 63.886719 191.332031 C 61.804688 189.792969 59.6875 188.085938 57.082031 187.5625 C 55.605469 187.136719 54.054688 187.480469 52.5625 187.683594 C 54.007812 187.742188 55.484375 187.730469 56.847656 188.226562 Z M 72.867188 190.148438 C 74.070312 191.117188 75.609375 191.449219 77.113281 191.605469 C 76.519531 191.058594 75.894531 190.527344 75.265625 190.027344 C 74.722656 189.980469 74.179688 189.933594 73.621094 189.898438 C 73.136719 189.816406 72.652344 189.730469 72.179688 189.648438 C 72.402344 189.816406 72.640625 189.980469 72.867188 190.148438 Z M 60.492188 195.941406 C 61.199219 195.726562 61.957031 195.632812 62.632812 195.289062 C 63.507812 194.683594 64.121094 193.808594 64.832031 193.027344 C 64.382812 193.15625 63.921875 193.285156 63.460938 193.40625 C 62.3125 194.046875 61.320312 194.921875 60.492188 195.941406 Z M 69.71875 163.625 C 69.730469 163.507812 69.765625 163.269531 69.789062 163.164062 C 70.441406 162.855469 71.078125 162.535156 71.71875 162.203125 C 69.992188 161.8125 68.617188 162.9375 67.269531 163.804688 L 65.898438 164.433594 L 65.613281 164.65625 L 67.140625 164.609375 C 68.617188 164.941406 70.179688 165.355469 71.671875 164.800781 C 72.605469 164.445312 73.824219 164.347656 74.226562 163.269531 C 72.722656 163.140625 71.195312 163.328125 69.71875 163.625 Z M 51.0625 172.667969 C 51.40625 173.070312 51.296875 174.019531 51.796875 174.195312 C 51.878906 174.21875 51.972656 174.230469 52.089844 174.207031 L 51.273438 172.015625 C 49.890625 169.148438 46.824219 167.75 43.925781 166.921875 C 44.09375 167.644531 44.246094 168.378906 44.414062 169.101562 C 44.765625 170.675781 45.324219 172.265625 46.460938 173.449219 C 48.117188 175.191406 49.9375 176.78125 51.878906 178.191406 C 50.566406 174.765625 47.984375 172.074219 45.820312 169.171875 C 47.820312 169.835938 49.914062 170.820312 51.0625 172.667969 Z M 92.089844 180.027344 C 91.746094 179.125 91.390625 178.238281 91.050781 177.324219 C 88.777344 172.632812 85.347656 168.472656 80.945312 165.652344 C 81.265625 167.300781 81.773438 169.054688 83.097656 170.191406 C 87.3125 174.019531 90.054688 179.316406 91.0625 184.898438 C 91.308594 187.007812 91.238281 189.140625 91.214844 191.261719 C 91.191406 194.460938 90.042969 197.503906 88.8125 200.410156 C 88.421875 201.132812 88.03125 201.867188 87.628906 202.589844 C 87.003906 203.359375 86.660156 204.402344 85.796875 204.945312 C 84.292969 207.351562 82.046875 209.191406 79.667969 210.660156 C 78.78125 211.226562 77.90625 211.808594 77.007812 212.367188 C 77.253906 211.902344 77.527344 211.453125 77.761719 210.980469 C 78.035156 210.445312 78.308594 209.902344 78.578125 209.367188 C 79.574219 207.140625 80.1875 204.664062 79.738281 202.222656 C 79.171875 198.949219 77.113281 196.203125 74.816406 193.925781 C 71.089844 190.265625 66.667969 187.445312 62.382812 184.492188 C 60.347656 183.109375 58.148438 181.722656 56.847656 179.566406 C 55.664062 177.691406 56.019531 175.25 56.894531 173.320312 C 59.070312 168.296875 63 164.089844 67.660156 161.257812 C 63.4375 163.222656 59.828125 166.339844 56.894531 169.929688 C 55.507812 171.707031 54.253906 173.675781 53.78125 175.914062 C 53.132812 178.261719 54.171875 180.773438 55.816406 182.457031 C 58.125 184.8125 60.894531 186.664062 63.1875 189.042969 C 63.402344 189.246094 63.601562 189.4375 63.804688 189.648438 C 63.816406 189.660156 63.816406 189.660156 63.828125 189.671875 C 64.074219 189.921875 64.3125 190.171875 64.523438 190.417969 C 64.535156 190.429688 64.535156 190.441406 64.546875 190.441406 C 69.089844 195.667969 67.625 201.996094 67.625 201.996094 C 67.519531 202.316406 67.292969 202.945312 67.1875 203.265625 C 66.960938 203.855469 66.652344 204.402344 66.3125 204.921875 C 66.144531 205.160156 65.96875 205.398438 65.777344 205.609375 C 65.304688 206.121094 64.832031 206.605469 64.324219 207.082031 C 64.074219 207.304688 63.804688 207.507812 63.519531 207.683594 C 63.152344 207.921875 62.773438 208.160156 62.382812 208.382812 C 62.148438 208.527344 61.910156 208.65625 61.660156 208.796875 C 59.472656 210.03125 56.988281 210.636719 54.515625 210.992188 C 53.464844 211.109375 52.28125 211.296875 51.355469 210.648438 C 49.960938 209.757812 48.648438 208.726562 47.5 207.53125 C 44.449219 204.496094 42.1875 200.703125 40.898438 196.605469 C 39.492188 191.6875 39.480469 186.402344 40.945312 181.507812 C 41.136719 181.023438 41.289062 180.535156 41.453125 180.050781 C 42.222656 178.082031 43.476562 176.140625 43.027344 173.925781 C 42.921875 173.675781 42.695312 173.164062 42.589844 172.917969 C 40.011719 177.125 37.964844 181.804688 37.765625 186.804688 C 37.703125 189.804688 37.550781 192.882812 38.472656 195.773438 C 38.53125 196.179688 38.605469 196.582031 38.664062 196.972656 C 40.792969 203.988281 45.632812 210.171875 52.078125 213.703125 C 53.085938 214.214844 54.078125 214.902344 55.226562 215.03125 C 56.929688 214.855469 58.574219 214.367188 60.21875 213.929688 C 60.597656 213.8125 60.976562 213.691406 61.367188 213.585938 C 65.425781 212.09375 69.234375 209.273438 70.878906 205.148438 C 71.386719 203.964844 71.609375 202.71875 71.695312 201.453125 C 72.425781 196.273438 70.0625 192.195312 68.476562 190.132812 C 69.515625 191.261719 70.605469 192.351562 71.433594 193.652344 C 72.699219 195.65625 73.730469 197.910156 73.765625 200.3125 C 73.964844 203.929688 72.226562 207.269531 70.203125 210.136719 C 71.695312 208.941406 73.125 207.636719 74.179688 206.027344 C 74.367188 205.621094 74.570312 205.21875 74.769531 204.828125 C 75.917969 202.257812 75.242188 199.484375 74.925781 196.828125 C 76.628906 200.019531 77.195312 203.855469 75.882812 207.292969 C 74.675781 211.167969 71.789062 214.117188 69.113281 217.023438 C 74.144531 216.335938 78.992188 214.320312 82.96875 211.144531 C 88.648438 206.675781 92.445312 199.945312 93.378906 192.777344 C 93.699219 188.5 93.582031 184.101562 92.089844 180.027344 Z M 92.089844 180.027344 " fill-opacity="1" fill-rule="nonzero"/></g><g fill="#ffffff" fill-opacity="1"><g transform="translate(99.999966, 195.374987)"><g><path d="M 1.453125 0 L 1.453125 -0.375 C 1.890625 -0.507812 2.191406 -0.796875 2.359375 -1.234375 C 2.523438 -1.671875 2.609375 -2.46875 2.609375 -3.625 L 2.609375 -16.390625 C 2.609375 -17.566406 2.523438 -18.367188 2.359375 -18.796875 C 2.191406 -19.222656 1.890625 -19.503906 1.453125 -19.640625 L 1.453125 -20.015625 L 8.15625 -20.015625 C 10.363281 -20.015625 11.945312 -19.675781 12.90625 -19 C 13.875 -18.320312 14.359375 -17.398438 14.359375 -16.234375 C 14.359375 -15.265625 14.015625 -14.378906 13.328125 -13.578125 C 12.640625 -12.773438 11.476562 -12.222656 9.84375 -11.921875 C 11.40625 -11.847656 12.679688 -11.5625 13.671875 -11.0625 C 14.660156 -10.570312 15.390625 -9.9375 15.859375 -9.15625 C 16.335938 -8.375 16.578125 -7.515625 16.578125 -6.578125 C 16.597656 -5.773438 16.445312 -4.984375 16.125 -4.203125 C 15.800781 -3.421875 15.273438 -2.710938 14.546875 -2.078125 C 13.828125 -1.453125 12.867188 -0.945312 11.671875 -0.5625 C 10.484375 -0.1875 9.023438 0 7.296875 0 Z M 4.953125 -2.921875 C 4.953125 -1.890625 5.046875 -1.210938 5.234375 -0.890625 C 5.421875 -0.578125 5.820312 -0.421875 6.4375 -0.421875 L 7.546875 -0.421875 C 9.109375 -0.421875 10.359375 -0.65625 11.296875 -1.125 C 12.234375 -1.59375 12.914062 -2.238281 13.34375 -3.0625 C 13.769531 -3.882812 13.984375 -4.816406 13.984375 -5.859375 C 13.984375 -6.960938 13.769531 -7.9375 13.34375 -8.78125 C 12.925781 -9.632812 12.265625 -10.304688 11.359375 -10.796875 C 10.460938 -11.296875 9.296875 -11.546875 7.859375 -11.546875 L 4.953125 -11.546875 Z M 4.953125 -11.984375 L 7.609375 -11.984375 C 9.015625 -11.984375 10.054688 -12.34375 10.734375 -13.0625 C 11.410156 -13.789062 11.75 -14.679688 11.75 -15.734375 C 11.75 -16.910156 11.34375 -17.847656 10.53125 -18.546875 C 9.726562 -19.242188 8.59375 -19.59375 7.125 -19.59375 L 4.953125 -19.59375 Z M 4.953125 -11.984375 "/></g></g></g><g fill="#ffffff" fill-opacity="1"><g transform="translate(121.981729, 195.374987)"><g><path d="M 1.453125 0 L 1.453125 -0.375 C 1.890625 -0.507812 2.191406 -0.796875 2.359375 -1.234375 C 2.523438 -1.671875 2.609375 -2.46875 2.609375 -3.625 L 2.609375 -16.390625 C 2.609375 -17.566406 2.523438 -18.367188 2.359375 -18.796875 C 2.191406 -19.222656 1.890625 -19.503906 1.453125 -19.640625 L 1.453125 -20.015625 L 6.09375 -20.015625 L 6.09375 -19.640625 C 5.65625 -19.503906 5.351562 -19.222656 5.1875 -18.796875 C 5.03125 -18.367188 4.953125 -17.566406 4.953125 -16.390625 L 4.953125 -3.625 C 4.953125 -2.46875 5.03125 -1.671875 5.1875 -1.234375 C 5.351562 -0.796875 5.65625 -0.507812 6.09375 -0.375 L 6.09375 0 Z M 1.453125 0 "/></g></g></g><g fill="#ffffff" fill-opacity="1"><g transform="translate(134.016963, 195.374987)"><g><path d="M 11.671875 0.28125 C 10.453125 0.28125 9.238281 0.078125 8.03125 -0.328125 C 6.832031 -0.734375 5.738281 -1.359375 4.75 -2.203125 C 3.757812 -3.054688 2.96875 -4.128906 2.375 -5.421875 C 1.78125 -6.722656 1.484375 -8.257812 1.484375 -10.03125 C 1.484375 -12 1.910156 -13.75 2.765625 -15.28125 C 3.628906 -16.8125 4.820312 -18.019531 6.34375 -18.90625 C 7.875 -19.800781 9.648438 -20.25 11.671875 -20.25 C 12.867188 -20.25 14.066406 -20.035156 15.265625 -19.609375 C 16.472656 -19.191406 17.566406 -18.554688 18.546875 -17.703125 C 19.523438 -16.859375 20.304688 -15.785156 20.890625 -14.484375 C 21.484375 -13.191406 21.78125 -11.671875 21.78125 -9.921875 C 21.78125 -8.148438 21.484375 -6.625 20.890625 -5.34375 C 20.304688 -4.070312 19.519531 -3.015625 18.53125 -2.171875 C 17.539062 -1.335938 16.445312 -0.71875 15.25 -0.3125 C 14.0625 0.0820312 12.867188 0.28125 11.671875 0.28125 Z M 3.78125 -11.6875 C 3.832031 -10.257812 4.09375 -8.875 4.5625 -7.53125 C 5.03125 -6.1875 5.664062 -4.976562 6.46875 -3.90625 C 7.28125 -2.84375 8.226562 -1.992188 9.3125 -1.359375 C 10.40625 -0.734375 11.59375 -0.421875 12.875 -0.421875 C 14.394531 -0.421875 15.660156 -0.753906 16.671875 -1.421875 C 17.679688 -2.097656 18.425781 -3.007812 18.90625 -4.15625 C 19.394531 -5.3125 19.613281 -6.601562 19.5625 -8.03125 C 19.5 -9.519531 19.234375 -10.953125 18.765625 -12.328125 C 18.304688 -13.710938 17.675781 -14.945312 16.875 -16.03125 C 16.070312 -17.125 15.125 -17.988281 14.03125 -18.625 C 12.945312 -19.269531 11.769531 -19.59375 10.5 -19.59375 C 9.050781 -19.59375 7.816406 -19.253906 6.796875 -18.578125 C 5.773438 -17.910156 5 -16.988281 4.46875 -15.8125 C 3.945312 -14.632812 3.71875 -13.257812 3.78125 -11.6875 Z M 3.78125 -11.6875 "/></g></g></g><g fill="#ffffff" fill-opacity="1"><g transform="translate(161.743704, 195.374987)"><g><path d="M 1.4375 0 L 1.4375 -0.375 C 1.875 -0.507812 2.171875 -0.796875 2.328125 -1.234375 C 2.492188 -1.671875 2.578125 -2.46875 2.578125 -3.625 L 2.578125 -15.234375 C 2.578125 -16.328125 2.507812 -17.171875 2.375 -17.765625 C 2.238281 -18.367188 2.039062 -18.800781 1.78125 -19.0625 C 1.53125 -19.332031 1.210938 -19.523438 0.828125 -19.640625 L 0.828125 -20.015625 L 4.296875 -20.015625 L 11.75 -7.6875 L 19.078125 -20.015625 L 22.296875 -20.015625 L 22.296875 -19.640625 C 21.921875 -19.523438 21.601562 -19.332031 21.34375 -19.0625 C 21.082031 -18.800781 20.882812 -18.367188 20.75 -17.765625 C 20.625 -17.171875 20.5625 -16.328125 20.5625 -15.234375 L 20.5625 -3.625 C 20.5625 -2.46875 20.640625 -1.671875 20.796875 -1.234375 C 20.960938 -0.796875 21.265625 -0.507812 21.703125 -0.375 L 21.703125 0 L 17.078125 0 L 17.078125 -0.375 C 17.515625 -0.507812 17.8125 -0.796875 17.96875 -1.234375 C 18.132812 -1.671875 18.21875 -2.46875 18.21875 -3.625 L 18.21875 -17.703125 L 10.953125 -5.4375 L 10.40625 -5.4375 L 3.09375 -17.46875 L 3.09375 -4.78125 C 3.09375 -3.6875 3.164062 -2.84375 3.3125 -2.25 C 3.46875 -1.664062 3.6875 -1.234375 3.96875 -0.953125 C 4.257812 -0.679688 4.613281 -0.488281 5.03125 -0.375 L 5.03125 0 Z M 1.4375 0 "/></g></g></g><g fill="#ffffff" fill-opacity="1"><g transform="translate(189.984911, 195.374987)"><g><path d="M -0.484375 0 L -0.484375 -0.375 C -0.0859375 -0.507812 0.300781 -0.769531 0.6875 -1.15625 C 1.070312 -1.550781 1.484375 -2.289062 1.921875 -3.375 L 7.546875 -17.328125 C 7.722656 -17.785156 7.703125 -18.234375 7.484375 -18.671875 L 7.234375 -19.265625 L 9.375 -20.25 L 16.40625 -3.34375 C 16.851562 -2.28125 17.25 -1.550781 17.59375 -1.15625 C 17.945312 -0.769531 18.28125 -0.507812 18.59375 -0.375 L 18.59375 0 L 14.15625 0 L 14.15625 -0.375 C 14.59375 -0.507812 14.769531 -0.769531 14.6875 -1.15625 C 14.613281 -1.550781 14.347656 -2.28125 13.890625 -3.34375 L 12.15625 -7.546875 L 4.09375 -7.546875 L 2.40625 -3.375 C 1.675781 -1.5625 1.789062 -0.5625 2.75 -0.375 L 2.75 0 Z M 4.265625 -7.984375 L 11.984375 -7.984375 L 8.0625 -17.390625 Z M 4.265625 -7.984375 "/></g></g></g><g fill="#ffffff" fill-opacity="1"><g transform="translate(212.795559, 195.374987)"><g><path d="M 16.5625 0.234375 L 3.09375 -17.296875 L 3.09375 -4.78125 C 3.09375 -3.6875 3.164062 -2.84375 3.3125 -2.25 C 3.46875 -1.664062 3.691406 -1.234375 3.984375 -0.953125 C 4.285156 -0.679688 4.644531 -0.488281 5.0625 -0.375 L 5.0625 0 L 1.484375 0 L 1.484375 -0.375 C 1.921875 -0.507812 2.21875 -0.796875 2.375 -1.234375 C 2.539062 -1.671875 2.625 -2.46875 2.625 -3.625 L 2.625 -16.390625 C 2.625 -17.566406 2.519531 -18.367188 2.3125 -18.796875 C 2.101562 -19.222656 1.710938 -19.503906 1.140625 -19.640625 L 1.140625 -20.015625 L 3.953125 -20.015625 L 16.4375 -3.828125 L 16.4375 -15.234375 C 16.4375 -16.328125 16.359375 -17.171875 16.203125 -17.765625 C 16.054688 -18.367188 15.835938 -18.800781 15.546875 -19.0625 C 15.265625 -19.332031 14.90625 -19.523438 14.46875 -19.640625 L 14.46875 -20.015625 L 18.078125 -20.015625 L 18.078125 -19.640625 C 17.628906 -19.503906 17.320312 -19.222656 17.15625 -18.796875 C 17 -18.367188 16.921875 -17.566406 16.921875 -16.390625 L 16.921875 0.234375 Z M 16.5625 0.234375 "/></g></g></g><g fill="#ffffff" fill-opacity="1"><g transform="translate(236.492243, 195.374987)"><g><path d="M 5.6875 0 L 5.6875 -0.375 C 6.125 -0.507812 6.421875 -0.796875 6.578125 -1.234375 C 6.742188 -1.671875 6.828125 -2.46875 6.828125 -3.625 L 6.828125 -19.5625 L 5.4375 -19.5625 C 4.15625 -19.5625 3.179688 -19.359375 2.515625 -18.953125 C 1.847656 -18.554688 1.265625 -17.84375 0.765625 -16.8125 L 0.453125 -16.875 L 0.625 -20.015625 L 15.359375 -20.015625 L 15.53125 -16.875 L 15.21875 -16.8125 C 14.738281 -17.84375 14.164062 -18.554688 13.5 -18.953125 C 12.832031 -19.359375 11.847656 -19.5625 10.546875 -19.5625 L 9.203125 -19.5625 L 9.203125 -3.625 C 9.203125 -2.46875 9.28125 -1.671875 9.4375 -1.234375 C 9.601562 -0.796875 9.90625 -0.507812 10.34375 -0.375 L 10.34375 0 Z M 5.6875 0 "/></g></g></g><g fill="#ffffff" fill-opacity="1"><g transform="translate(256.987752, 195.374987)"><g><path d="M 1.453125 0 L 1.453125 -0.375 C 1.890625 -0.507812 2.191406 -0.796875 2.359375 -1.234375 C 2.523438 -1.671875 2.609375 -2.46875 2.609375 -3.625 L 2.609375 -16.390625 C 2.609375 -17.566406 2.523438 -18.367188 2.359375 -18.796875 C 2.191406 -19.222656 1.890625 -19.503906 1.453125 -19.640625 L 1.453125 -20.015625 L 6.09375 -20.015625 L 6.09375 -19.640625 C 5.65625 -19.503906 5.351562 -19.222656 5.1875 -18.796875 C 5.03125 -18.367188 4.953125 -17.566406 4.953125 -16.390625 L 4.953125 -3.625 C 4.953125 -2.46875 5.03125 -1.671875 5.1875 -1.234375 C 5.351562 -0.796875 5.65625 -0.507812 6.09375 -0.375 L 6.09375 0 Z M 1.453125 0 "/></g></g></g><g fill="#ffffff" fill-opacity="1"><g transform="translate(269.022988, 195.374987)"><g><path d="M 19.90625 5 C 19.269531 5 18.640625 4.832031 18.015625 4.5 C 17.398438 4.164062 16.804688 3.742188 16.234375 3.234375 C 15.671875 2.734375 15.148438 2.207031 14.671875 1.65625 C 14.191406 1.101562 13.78125 0.597656 13.4375 0.140625 C 13.132812 0.179688 12.832031 0.210938 12.53125 0.234375 C 12.238281 0.265625 11.953125 0.28125 11.671875 0.28125 C 10.453125 0.28125 9.238281 0.078125 8.03125 -0.328125 C 6.832031 -0.734375 5.738281 -1.359375 4.75 -2.203125 C 3.757812 -3.054688 2.96875 -4.128906 2.375 -5.421875 C 1.78125 -6.722656 1.484375 -8.257812 1.484375 -10.03125 C 1.484375 -12 1.910156 -13.75 2.765625 -15.28125 C 3.628906 -16.8125 4.820312 -18.019531 6.34375 -18.90625 C 7.875 -19.800781 9.648438 -20.25 11.671875 -20.25 C 12.867188 -20.25 14.066406 -20.035156 15.265625 -19.609375 C 16.472656 -19.191406 17.566406 -18.554688 18.546875 -17.703125 C 19.523438 -16.859375 20.304688 -15.785156 20.890625 -14.484375 C 21.484375 -13.191406 21.78125 -11.671875 21.78125 -9.921875 C 21.78125 -7.941406 21.410156 -6.257812 20.671875 -4.875 C 19.929688 -3.488281 18.960938 -2.390625 17.765625 -1.578125 C 16.578125 -0.773438 15.304688 -0.226562 13.953125 0.0625 C 15.097656 0.9375 16.234375 1.671875 17.359375 2.265625 C 18.484375 2.867188 19.625 3.171875 20.78125 3.171875 C 21.445312 3.171875 22.019531 3.066406 22.5 2.859375 C 22.976562 2.648438 23.398438 2.351562 23.765625 1.96875 L 23.984375 2.171875 C 23.296875 2.972656 22.628906 3.644531 21.984375 4.1875 C 21.335938 4.726562 20.644531 5 19.90625 5 Z M 3.78125 -11.6875 C 3.832031 -10.257812 4.09375 -8.875 4.5625 -7.53125 C 5.03125 -6.1875 5.664062 -4.976562 6.46875 -3.90625 C 7.28125 -2.84375 8.226562 -1.992188 9.3125 -1.359375 C 10.40625 -0.734375 11.59375 -0.421875 12.875 -0.421875 C 14.394531 -0.421875 15.660156 -0.753906 16.671875 -1.421875 C 17.679688 -2.097656 18.425781 -3.007812 18.90625 -4.15625 C 19.394531 -5.3125 19.613281 -6.601562 19.5625 -8.03125 C 19.5 -9.519531 19.234375 -10.953125 18.765625 -12.328125 C 18.304688 -13.710938 17.675781 -14.945312 16.875 -16.03125 C 16.070312 -17.125 15.125 -17.988281 14.03125 -18.625 C 12.945312 -19.269531 11.769531 -19.59375 10.5 -19.59375 C 9.050781 -19.59375 7.816406 -19.253906 6.796875 -18.578125 C 5.773438 -17.910156 5 -16.988281 4.46875 -15.8125 C 3.945312 -14.632812 3.71875 -13.257812 3.78125 -11.6875 Z M 3.78125 -11.6875 "/></g></g></g><g fill="#ffffff" fill-opacity="1"><g transform="translate(296.749732, 195.374987)"><g><path d="M 10.328125 0.28125 C 9.296875 0.28125 8.296875 0.148438 7.328125 -0.109375 C 6.367188 -0.378906 5.507812 -0.804688 4.75 -1.390625 C 3.988281 -1.984375 3.378906 -2.769531 2.921875 -3.75 C 2.460938 -4.738281 2.234375 -5.945312 2.234375 -7.375 L 2.234375 -16.390625 C 2.234375 -17.566406 2.148438 -18.367188 1.984375 -18.796875 C 1.828125 -19.222656 1.53125 -19.503906 1.09375 -19.640625 L 1.09375 -20.015625 L 5.71875 -20.015625 L 5.71875 -19.640625 C 5.300781 -19.503906 5.003906 -19.222656 4.828125 -18.796875 C 4.660156 -18.367188 4.578125 -17.566406 4.578125 -16.390625 L 4.578125 -7.546875 C 4.578125 -5.773438 4.867188 -4.359375 5.453125 -3.296875 C 6.046875 -2.242188 6.847656 -1.484375 7.859375 -1.015625 C 8.867188 -0.546875 9.992188 -0.3125 11.234375 -0.3125 C 11.847656 -0.3125 12.488281 -0.425781 13.15625 -0.65625 C 13.820312 -0.882812 14.441406 -1.273438 15.015625 -1.828125 C 15.597656 -2.378906 16.070312 -3.125 16.4375 -4.0625 C 16.800781 -5 16.984375 -6.160156 16.984375 -7.546875 L 16.984375 -15.234375 C 16.984375 -16.328125 16.90625 -17.171875 16.75 -17.765625 C 16.601562 -18.367188 16.382812 -18.800781 16.09375 -19.0625 C 15.8125 -19.332031 15.460938 -19.523438 15.046875 -19.640625 L 15.046875 -20.015625 L 18.59375 -20.015625 L 18.59375 -19.640625 C 18.164062 -19.503906 17.863281 -19.222656 17.6875 -18.796875 C 17.519531 -18.367188 17.4375 -17.566406 17.4375 -16.390625 L 17.4375 -7.640625 C 17.4375 -5.734375 17.117188 -4.195312 16.484375 -3.03125 C 15.847656 -1.863281 14.992188 -1.019531 13.921875 -0.5 C 12.859375 0.0195312 11.660156 0.28125 10.328125 0.28125 Z M 10.328125 0.28125 "/></g></g></g><g fill="#ffffff" fill-opacity="1"><g transform="translate(320.646481, 195.374987)"><g><path d="M 1.453125 0 L 1.453125 -0.375 C 1.890625 -0.507812 2.191406 -0.796875 2.359375 -1.234375 C 2.523438 -1.671875 2.609375 -2.46875 2.609375 -3.625 L 2.609375 -16.390625 C 2.609375 -17.566406 2.523438 -18.367188 2.359375 -18.796875 C 2.191406 -19.222656 1.890625 -19.503906 1.453125 -19.640625 L 1.453125 -20.015625 L 14.75 -20.015625 L 15.0625 -16.296875 L 14.75 -16.21875 C 14.257812 -17.46875 13.570312 -18.34375 12.6875 -18.84375 C 11.800781 -19.34375 10.625 -19.59375 9.15625 -19.59375 L 4.953125 -19.59375 L 4.953125 -10.921875 L 8.609375 -10.921875 C 9.691406 -10.921875 10.53125 -10.992188 11.125 -11.140625 C 11.726562 -11.285156 12.171875 -11.503906 12.453125 -11.796875 C 12.734375 -12.085938 12.925781 -12.445312 13.03125 -12.875 L 13.375 -12.875 L 13.375 -8.546875 L 13.03125 -8.546875 C 12.925781 -8.984375 12.734375 -9.34375 12.453125 -9.625 C 12.171875 -9.914062 11.726562 -10.132812 11.125 -10.28125 C 10.53125 -10.425781 9.691406 -10.5 8.609375 -10.5 L 4.953125 -10.5 L 4.953125 -1.71875 C 4.953125 -0.851562 5.378906 -0.421875 6.234375 -0.421875 L 9.953125 -0.421875 C 11.328125 -0.421875 12.460938 -0.660156 13.359375 -1.140625 C 14.253906 -1.617188 14.957031 -2.523438 15.46875 -3.859375 L 15.78125 -3.796875 L 15.5625 0 Z M 1.453125 0 "/></g></g></g></svg>