<svg xmlns="http://www.w3.org/2000/svg" xmlns:xlink="http://www.w3.org/1999/xlink" zoomAndPan="magnify" preserveAspectRatio="xMidYMid meet" version="1.0" viewBox="135 132 105.48 111"><defs><clipPath id="7981aeae94"><path d="M 135 132 L 240.476562 132 L 240.476562 243 L 135 243 Z M 135 132 " clip-rule="nonzero"/></clipPath></defs><g clip-path="url(#7981aeae94)"><path fill="#7ec802" d="M 165.136719 156.84375 C 162.890625 153.511719 161.578125 149.496094 162.175781 145.453125 C 162.867188 144.253906 163.511719 143.035156 164.113281 141.769531 C 162.710938 145.1875 163.488281 148.9375 165.425781 151.980469 C 165.582031 147.386719 165.847656 142.769531 167.425781 138.371094 C 167.695312 138.214844 168.25 137.929688 168.515625 137.773438 C 168.648438 141.703125 169.761719 145.699219 168.761719 149.605469 C 168.207031 152.3125 166.515625 154.535156 165.136719 156.84375 Z M 210.308594 168.609375 C 210.289062 169.5625 210.265625 170.496094 210.242188 171.449219 C 212.355469 169.050781 213.933594 166.210938 214.601562 163.101562 C 212.535156 164.367188 211.15625 166.367188 210.308594 168.609375 Z M 168.117188 182.683594 C 165.089844 182.417969 162.023438 182.484375 158.976562 182.238281 C 156.082031 182.082031 153.570312 180.441406 151.125 179.066406 C 155.925781 177.355469 161.019531 179.375 165.625 180.773438 C 165.667969 180.640625 165.738281 180.351562 165.757812 180.21875 C 165.15625 179.976562 164.558594 179.730469 163.957031 179.488281 C 161.667969 177.289062 158.707031 175.46875 155.4375 175.492188 C 151.96875 175.335938 149.03125 177.488281 146.230469 179.21875 C 148.632812 180.953125 151.125 182.683594 153.992188 183.527344 C 158.707031 184.460938 163.445312 183.015625 168.117188 182.683594 Z M 220.140625 212.253906 C 219.761719 208.433594 218.648438 204.171875 218.5625 203.796875 C 218.5625 203.796875 218.5625 203.796875 218.5625 203.773438 C 216.382812 203.617188 214.203125 203.460938 212.023438 203.375 C 215.378906 208.011719 217.160156 213.785156 216.382812 219.511719 C 215.378906 222.710938 214.089844 225.796875 212.089844 228.503906 L 206.996094 231.5 L 208.996094 234.296875 C 217.828125 226.882812 219.71875 218.914062 220.097656 216.5625 C 220.316406 215.40625 220.296875 213.875 220.140625 212.253906 Z M 218.5625 203.796875 C 218.648438 204.171875 219.761719 208.433594 220.140625 212.253906 C 219.984375 209.390625 219.363281 206.546875 218.5625 203.796875 Z M 229.394531 206.726562 C 226.902344 206.082031 224.433594 205.304688 221.941406 204.707031 C 222.699219 209.613281 222.652344 214.671875 221.273438 219.46875 C 219.628906 223.777344 217.046875 227.617188 214 231.058594 C 218.496094 228.304688 222.699219 224.839844 225.523438 220.355469 C 227.925781 216.25 229.925781 211.609375 229.394531 206.726562 Z M 186.511719 205.171875 C 185.332031 205.660156 184.152344 206.125 182.972656 206.59375 C 185.53125 209.257812 187.84375 212.296875 188.535156 216.003906 C 186.53125 212.519531 183.839844 209.5 180.617188 207.125 C 179.503906 207.660156 178.390625 208.214844 177.28125 208.769531 C 182.152344 211.476562 186.289062 215.429688 188.914062 220.355469 C 189.535156 219.378906 190.136719 218.359375 190.558594 217.25 C 190.625 213.074219 190.648438 208.746094 188.710938 204.929688 C 188.15625 204.972656 187.066406 205.105469 186.511719 205.171875 Z M 174.386719 209.96875 C 172.632812 210.8125 170.964844 211.832031 169.472656 213.074219 C 175.234375 216.027344 180.636719 219.757812 185.175781 224.375 C 186.132812 223.507812 187.042969 222.578125 187.910156 221.621094 C 184.707031 216.449219 179.835938 212.566406 174.386719 209.96875 Z M 147.71875 211.097656 C 147.875 212.496094 148.03125 213.898438 148.210938 215.316406 C 160.199219 215.40625 172.007812 219.644531 181.550781 226.839844 C 182.261719 226.417969 182.972656 225.972656 183.6875 225.53125 C 175.167969 218.515625 164.78125 214.03125 154.058594 211.566406 C 151.925781 211.320312 149.8125 211.1875 147.71875 211.097656 Z M 178.238281 225.597656 C 177.4375 225.21875 176.636719 224.820312 175.835938 224.398438 C 167.714844 220.046875 158.484375 217.226562 149.210938 217.671875 C 149.789062 218.558594 150.367188 219.425781 150.945312 220.3125 C 150.945312 220.3125 150.96875 220.3125 150.988281 220.3125 C 151.835938 220.402344 164.289062 221.933594 170.5625 226.351562 C 171.207031 226.660156 171.785156 227.082031 172.1875 227.703125 C 171.808594 227.839844 171.429688 227.882812 171.097656 227.859375 C 170.742188 227.839844 170.386719 227.726562 170.097656 227.570312 C 160.644531 224.820312 152.125 221.800781 151.855469 221.710938 C 152.214844 222.445312 152.589844 223.199219 152.945312 223.929688 C 153.101562 224.265625 153.390625 224.90625 153.546875 225.242188 C 155.707031 227.484375 158.175781 229.414062 160.796875 231.078125 C 162.535156 232.300781 164.757812 231.945312 166.738281 231.722656 C 171.386719 231.058594 176.058594 229.925781 180.171875 227.617188 C 179.816406 226.707031 178.925781 226.21875 178.238281 225.597656 Z M 179.882812 173.113281 C 179.859375 174.667969 180.460938 176.199219 180.75 177.710938 C 182.683594 176.511719 184.6875 175.269531 185.976562 173.316406 C 187.535156 170.585938 188.113281 167.453125 188.558594 164.390625 C 184.976562 166.523438 183.886719 170.738281 181.417969 173.824219 C 181.417969 173.582031 181.394531 173.335938 181.371094 173.09375 L 183.152344 168.054688 C 183.242188 167.875 183.328125 167.675781 183.351562 167.476562 C 182.953125 166.320312 182.128906 167.164062 181.507812 167.585938 C 180.527344 168.851562 180.105469 170.984375 179.949219 172.183594 C 179.949219 172.183594 179.949219 172.203125 179.949219 172.203125 C 179.925781 172.515625 179.90625 172.804688 179.882812 173.113281 Z M 189.78125 132 C 187.398438 133.378906 185.421875 135.332031 184.21875 137.796875 C 187.175781 137.152344 188.578125 134.507812 189.78125 132 Z M 176.65625 140.570312 C 177.035156 138.484375 177.65625 136.441406 178.546875 134.53125 C 177.324219 135.6875 175.921875 136.707031 175.078125 138.195312 C 174.144531 140.304688 174.210938 142.65625 174.1875 144.921875 C 176.191406 143.789062 178.390625 142.703125 179.59375 140.660156 C 180.882812 138.4375 181.707031 135.972656 182.773438 133.644531 C 182.417969 133.710938 181.683594 133.820312 181.328125 133.886719 C 179.503906 135.886719 178.101562 138.261719 176.65625 140.570312 Z M 184.21875 191.761719 C 184.664062 192.230469 185.109375 192.695312 185.53125 193.160156 C 185.132812 192.695312 184.6875 192.230469 184.21875 191.761719 Z M 159.308594 151.9375 C 160.21875 148.960938 158.953125 146.207031 157.195312 143.855469 C 156.839844 146.742188 158.039062 149.429688 159.308594 151.9375 Z M 175.011719 162.238281 C 177.480469 162.171875 180.015625 162.214844 182.375 161.414062 C 188.867188 159.550781 192.847656 153.691406 197.566406 149.316406 C 196.007812 149.292969 194.429688 149.382812 192.894531 149.5625 C 187.421875 151.226562 183.039062 154.957031 178.902344 158.75 C 179.058594 158.441406 179.347656 157.796875 179.480469 157.488281 C 180.707031 155.042969 182.375 152.847656 184.195312 150.804688 C 185.152344 150.359375 186.132812 149.9375 187.132812 149.539062 C 186.621094 149.515625 186.109375 149.515625 185.597656 149.496094 C 180.082031 151.582031 177.011719 157.019531 175.011719 162.238281 Z M 201.878906 150.269531 C 200.410156 151.738281 199.011719 153.3125 198.296875 155.3125 C 198.230469 156.753906 198.164062 158.195312 198.078125 159.640625 C 200.65625 159.238281 203.214844 158.152344 204.882812 156.066406 C 206.527344 153.980469 207.527344 151.492188 208.976562 149.273438 C 208.464844 149.273438 207.417969 149.273438 206.90625 149.273438 C 204.125 150.914062 202.078125 153.402344 200.035156 155.84375 C 199.855469 153.757812 200.765625 151.9375 201.878906 150.269531 Z M 191.78125 166.945312 C 194.25 164.679688 194.429688 161.304688 194.539062 158.195312 C 194.273438 158.328125 193.761719 158.574219 193.515625 158.707031 C 192.316406 161.304688 191.671875 164.101562 191.78125 166.945312 Z M 191.070312 177.066406 C 191.449219 175.957031 191.804688 174.824219 192.183594 173.738281 C 193.472656 171.363281 195.007812 169.097656 196.808594 167.078125 C 198.007812 166.210938 199.632812 165.746094 200.5 164.5 C 197.941406 166.167969 194.941406 167.164062 192.847656 169.472656 C 189.9375 172.539062 187.84375 176.335938 186.554688 180.332031 C 189.335938 179.910156 192.160156 179.820312 194.917969 179.265625 C 198.433594 178.355469 201.925781 176.757812 204.28125 173.871094 C 207.460938 169.808594 209.019531 164.636719 209.53125 159.574219 C 206.996094 161.347656 205.394531 164.035156 203.503906 166.433594 C 200.144531 170.785156 195.917969 174.445312 191.070312 177.066406 Z M 175.765625 173.757812 C 176.257812 172.070312 175.902344 170.339844 175.324219 168.742188 C 174.722656 167.921875 174.121094 167.097656 173.519531 166.300781 C 173.722656 168.808594 173.898438 171.851562 175.765625 173.757812 Z M 149.144531 170.03125 C 151.101562 172.339844 154.171875 173.113281 157.0625 173.316406 C 154.683594 171.074219 151.769531 169.386719 148.5 168.851562 C 148.65625 169.164062 148.988281 169.742188 149.144531 170.03125 Z M 204.859375 177.644531 C 208.242188 177.976562 211.667969 177.199219 214.3125 175.023438 C 213.023438 174.890625 211.734375 174.800781 210.441406 174.757812 C 208.53125 175.625 206.683594 176.601562 204.859375 177.644531 Z M 202.792969 189.386719 C 207.351562 188.722656 210.777344 184.882812 212.6875 180.953125 C 212.378906 181.085938 211.777344 181.375 211.464844 181.507812 C 206.996094 182.640625 202.902344 185.726562 198.03125 184.679688 C 199.832031 183.039062 201.96875 181.882812 204.238281 180.996094 C 200.324219 181.507812 197.03125 183.769531 194.316406 186.5 C 196.765625 188.234375 199.765625 189.367188 202.792969 189.386719 Z M 157.730469 188.921875 C 156.929688 188.476562 156.128906 188.054688 155.347656 187.632812 C 152.125 186.902344 149.078125 188.457031 146.074219 189.386719 C 149.8125 190.964844 154.015625 190.1875 157.730469 188.921875 Z M 171.097656 189.054688 C 174.03125 190.230469 176.769531 191.894531 179.347656 193.761719 C 176.300781 193.582031 173.253906 193.226562 170.273438 192.5625 C 164.511719 192.164062 158.53125 191.828125 153.125 194.226562 C 158.261719 196.003906 163.535156 197.289062 168.804688 198.578125 C 170.695312 198.691406 172.585938 198.691406 174.476562 198.578125 C 177.835938 197.558594 181.238281 196.582031 184.332031 194.871094 C 180.417969 191.984375 176.433594 188.789062 171.542969 187.8125 C 168.761719 187.011719 165.847656 187.65625 163.046875 188.035156 C 165.757812 188.144531 168.539062 188.121094 171.097656 189.054688 Z M 201.210938 192.652344 C 203.480469 194.472656 206.371094 195.09375 209.199219 195.382812 C 208.085938 194.359375 206.90625 193.363281 205.726562 192.429688 C 204.703125 192.339844 203.679688 192.25 202.636719 192.183594 C 201.722656 192.03125 200.8125 191.875 199.921875 191.71875 C 200.34375 192.03125 200.789062 192.339844 201.210938 192.652344 Z M 177.945312 203.507812 C 179.28125 203.105469 180.707031 202.929688 181.972656 202.285156 C 183.617188 201.152344 184.777344 199.511719 186.109375 198.046875 C 185.265625 198.289062 184.398438 198.535156 183.53125 198.757812 C 181.371094 199.953125 179.503906 201.597656 177.945312 203.507812 Z M 195.296875 142.96875 C 195.316406 142.746094 195.386719 142.300781 195.429688 142.101562 C 196.652344 141.523438 197.855469 140.925781 199.054688 140.304688 C 195.808594 139.570312 193.226562 141.679688 190.691406 143.300781 L 188.113281 144.476562 L 187.578125 144.898438 L 190.445312 144.808594 C 193.226562 145.433594 196.164062 146.207031 198.964844 145.164062 C 200.722656 144.5 203.015625 144.320312 203.769531 142.300781 C 200.945312 142.058594 198.078125 142.414062 195.296875 142.96875 Z M 160.21875 159.90625 C 160.867188 160.660156 160.664062 162.4375 161.597656 162.769531 C 161.753906 162.8125 161.933594 162.835938 162.15625 162.792969 L 160.621094 158.683594 C 158.019531 153.3125 152.257812 150.691406 146.808594 149.140625 C 147.121094 150.492188 147.410156 151.871094 147.71875 153.222656 C 148.386719 156.175781 149.433594 159.152344 151.566406 161.371094 C 154.683594 164.636719 158.105469 167.609375 161.753906 170.25 C 159.285156 163.835938 154.4375 158.796875 150.367188 153.355469 C 154.125 154.601562 158.0625 156.441406 160.21875 159.90625 Z M 237.355469 173.691406 C 236.710938 172.003906 236.042969 170.339844 235.398438 168.628906 C 231.128906 159.839844 224.679688 152.046875 216.402344 146.765625 C 217.003906 149.847656 217.960938 153.136719 220.453125 155.265625 C 228.371094 162.4375 233.53125 172.359375 235.421875 182.816406 C 235.886719 186.769531 235.753906 190.765625 235.710938 194.738281 C 235.664062 200.730469 233.507812 206.4375 231.195312 211.875 C 230.460938 213.230469 229.726562 214.605469 228.96875 215.960938 C 227.792969 217.402344 227.148438 219.359375 225.523438 220.378906 C 222.699219 224.886719 218.472656 228.328125 214 231.078125 C 212.332031 232.144531 210.6875 233.234375 208.996094 234.277344 C 209.464844 233.410156 209.976562 232.566406 210.421875 231.679688 C 210.933594 230.679688 211.445312 229.660156 211.957031 228.660156 C 213.824219 224.484375 214.980469 219.847656 214.136719 215.273438 C 213.066406 209.144531 209.199219 203.996094 204.882812 199.734375 C 197.875 192.875 189.558594 187.589844 181.507812 182.0625 C 177.679688 179.464844 173.542969 176.867188 171.097656 172.828125 C 168.871094 169.320312 169.539062 164.746094 171.1875 161.128906 C 175.277344 151.714844 182.664062 143.832031 191.425781 138.527344 C 183.484375 142.210938 176.703125 148.050781 171.1875 154.777344 C 168.582031 158.109375 166.226562 161.792969 165.335938 165.988281 C 164.113281 170.382812 166.070312 175.089844 169.160156 178.242188 C 173.5 182.660156 178.703125 186.125 183.019531 190.585938 C 183.417969 190.964844 183.796875 191.320312 184.175781 191.71875 C 184.195312 191.742188 184.195312 191.742188 184.21875 191.761719 C 184.6875 192.230469 185.132812 192.695312 185.53125 193.160156 C 185.554688 193.183594 185.554688 193.207031 185.578125 193.207031 C 194.117188 202.996094 191.359375 214.851562 191.359375 214.851562 C 191.160156 215.449219 190.738281 216.628906 190.535156 217.226562 C 190.113281 218.335938 189.535156 219.359375 188.890625 220.335938 C 188.578125 220.777344 188.246094 221.222656 187.890625 221.621094 C 187 222.578125 186.109375 223.488281 185.152344 224.375 C 184.6875 224.796875 184.175781 225.175781 183.640625 225.507812 C 182.953125 225.953125 182.238281 226.394531 181.507812 226.816406 C 181.0625 227.082031 180.617188 227.328125 180.148438 227.59375 C 176.035156 229.902344 171.363281 231.035156 166.714844 231.699219 C 164.734375 231.921875 162.511719 232.277344 160.777344 231.058594 C 158.152344 229.390625 155.683594 227.460938 153.527344 225.21875 C 147.785156 219.535156 143.539062 212.429688 141.113281 204.75 C 138.46875 195.539062 138.445312 185.636719 141.203125 176.46875 C 141.558594 175.558594 141.847656 174.648438 142.160156 173.738281 C 143.605469 170.050781 145.964844 166.410156 145.117188 162.257812 C 144.917969 161.792969 144.496094 160.839844 144.296875 160.371094 C 139.445312 168.253906 135.597656 177.023438 135.21875 186.390625 C 135.109375 192.007812 134.820312 197.78125 136.554688 203.195312 C 136.667969 203.949219 136.800781 204.707031 136.910156 205.4375 C 140.914062 218.582031 150.011719 230.167969 162.132812 236.785156 C 164.023438 237.738281 165.890625 239.027344 168.050781 239.269531 C 171.253906 238.9375 174.34375 238.027344 177.4375 237.207031 C 178.148438 236.984375 178.859375 236.761719 179.59375 236.5625 C 187.222656 233.765625 194.382812 228.480469 197.476562 220.757812 C 198.433594 218.535156 198.855469 216.207031 199.011719 213.828125 C 200.390625 204.128906 195.941406 196.492188 192.960938 192.628906 C 194.917969 194.738281 196.964844 196.78125 198.519531 199.222656 C 200.902344 202.972656 202.835938 207.191406 202.902344 211.699219 C 203.28125 218.46875 200.011719 224.730469 196.207031 230.101562 C 199.011719 227.859375 201.703125 225.417969 203.679688 222.398438 C 204.039062 221.644531 204.414062 220.890625 204.792969 220.15625 C 206.949219 215.339844 205.683594 210.144531 205.082031 205.171875 C 208.285156 211.144531 209.351562 218.335938 206.882812 224.773438 C 204.617188 232.035156 199.1875 237.5625 194.160156 243 C 203.613281 241.714844 212.734375 237.9375 220.207031 231.988281 C 230.882812 223.621094 238.023438 211.011719 239.78125 197.578125 C 240.378906 189.566406 240.15625 181.328125 237.355469 173.691406 Z M 237.355469 173.691406 " fill-opacity="1" fill-rule="nonzero"/></g></svg>